<svg width="12" height="12" viewBox="0 0 12 12" fill="none" xmlns="http://www.w3.org/2000/svg">
<path fill-rule="evenodd" clip-rule="evenodd" d="M11.3448 1.14373H0.655218C0.388142 1.14373 0.166664 0.922255 0.166664 0.65518C0.166664 0.388104 0.388142 0.166626 0.655218 0.166626H11.3448C11.6118 0.166626 11.8333 0.388104 11.8333 0.65518C11.8333 0.922255 11.6118 1.14373 11.3448 1.14373ZM0.655217 1.63881H3.20872C3.4758 1.63881 3.69727 1.86029 3.69727 2.12736V11.3447C3.69727 11.6118 3.4758 11.8333 3.20872 11.8333H0.655217C0.388141 11.8333 0.166664 11.6118 0.166664 11.3447V2.12736C0.166664 1.86029 0.388141 1.63881 0.655217 1.63881ZM1.14377 10.8562H2.72017V2.61592H1.14377V10.8562ZM4.71346 1.63881H7.26697C7.53405 1.63881 7.75553 1.86029 7.75553 2.12736V9.35144C7.75553 9.61852 7.53405 9.84 7.26697 9.84H4.71346C4.44638 9.84 4.22491 9.61852 4.22491 9.35144V2.12736C4.22491 1.86029 4.44638 1.63881 4.71346 1.63881ZM5.20202 8.8694H6.77842V2.61592H5.20202V8.8694ZM11.3448 1.63881H8.79126C8.52418 1.63881 8.3027 1.86029 8.3027 2.12736V7.76853C8.3027 8.0356 8.52418 8.25708 8.79126 8.25708H11.3448C11.6118 8.25708 11.8333 8.0356 11.8333 7.76853V2.12736C11.8333 1.86029 11.6118 1.63881 11.3448 1.63881ZM10.8562 7.27997H9.27981V2.61592H10.8562V7.27997Z" fill="#8F7CEA"/>
</svg>
